<svg width="24" height="24" viewBox="0 0 24 24" fill="none" xmlns="http://www.w3.org/2000/svg">
<path d="M16.7334 7.56302L16.7334 7.56305C16.5196 7.73792 16.4881 8.05294 16.663 8.26665C17.494 9.28227 18 10.5717 18 12C18 13.4324 17.4913 14.771 16.663 15.7834C16.4882 15.9971 16.5196 16.3121 16.7334 16.487C16.947 16.6618 17.262 16.6304 17.437 16.4167L16.7334 7.56302ZM16.7334 7.56302C16.9471 7.38822 17.262 7.41963 17.437 7.63339M16.7334 7.56302L17.437 7.63339M17.437 7.63339C18.4061 8.81785 19 10.3285 19 12C19 13.6675 18.4087 15.2289 17.4371 16.4166L17.437 7.63339ZM13.726 2.55399L13.726 2.55401C13.8941 2.63918 14 2.81156 14 3.00001V21C14 21.1884 13.8941 21.3609 13.7261 21.446L13.726 21.446C13.5579 21.5312 13.3562 21.5146 13.2043 21.4032L13.2043 21.4032L5.91974 16.0612L5.81203 15.9822L5.67927 15.9675L3.25182 15.6978L3.25183 15.6977L3.24542 15.6971C1.9291 15.568 1 14.4417 1 13.2V10.8C1 9.49161 1.99526 8.43056 3.24524 8.30299L3.24524 8.30301L3.2497 8.30252L5.67928 8.03257L5.81203 8.01782L5.91974 7.93883L13.2043 2.59681C13.3562 2.48537 13.558 2.46884 13.726 2.55399ZM13 4.97342V3.98671L12.2043 4.57021L6.29568 8.90321C6.2251 8.95497 6.14219 8.98728 6.05524 8.99694L6.05521 8.99694L3.35521 9.29694L3.35493 9.29698L3.3521 9.29729L3.34975 9.29753C2.60086 9.37241 2 10.0114 2 10.8V13.2C2 13.9606 2.57159 14.6273 3.34538 14.7021C3.34606 14.7021 3.34673 14.7022 3.34741 14.7023L3.35738 14.7033L6.05521 15.003L6.0553 15.0031C6.14212 15.0127 6.22503 15.045 6.29568 15.0968L12.2043 19.4298L13 20.0133V19.0266V4.97342ZM19.4117 4.53186L19.4117 4.53181C19.615 4.34502 19.9313 4.35834 20.1181 4.5617C21.9004 6.50114 23 9.12092 23 12C23 14.8791 21.9004 17.4988 20.1181 19.4383L20.1181 19.4383C19.9313 19.6417 19.615 19.655 19.4117 19.4682L19.4117 19.4681C19.2083 19.2813 19.195 18.965 19.3818 18.7618L19.3819 18.7617C20.9997 17.0012 22 14.6209 22 12C22 9.37911 20.9997 6.99889 19.3819 5.23832L19.0137 5.57663L19.3819 5.23831C19.195 5.03496 19.2084 4.71868 19.4117 4.53186Z" fill="#FCFCFC" stroke="#FCFCFC"/>
</svg>
