<svg width="17" height="16" viewBox="0 0 17 16" fill="none" xmlns="http://www.w3.org/2000/svg">
<path d="M4.66667 8.85662V14.3333C4.66667 14.4239 4.59053 14.5 4.5 14.5H2.5C2.40948 14.5 2.33334 14.4239 2.33334 14.3333V1.66667C2.33334 1.57614 2.40948 1.5 2.5 1.5H4.5C4.59053 1.5 4.66667 1.57614 4.66667 1.66667V7.11005V7.54853V8.41813V8.85662ZM5.53919 8.08462L5.44851 7.98333L5.53919 7.88204C5.54895 7.87114 5.56137 7.86 5.57725 7.84943L5.57727 7.84945L5.58201 7.84622L14.4153 1.81288L14.427 1.80492L14.4382 1.79631C14.4678 1.77354 14.4913 1.76783 14.5087 1.76674C14.5285 1.76551 14.5527 1.76985 14.5781 1.78334C14.6301 1.81093 14.6667 1.86413 14.6667 1.93333V14.0667C14.6667 14.1359 14.6301 14.1891 14.5781 14.2167C14.5527 14.2301 14.5285 14.2345 14.5087 14.2333C14.4913 14.2322 14.4678 14.2265 14.4382 14.2037L14.4275 14.1955L14.4164 14.1878L5.58307 8.12118L5.5831 8.12114L5.57725 8.11724C5.56137 8.10666 5.54895 8.09553 5.53919 8.08462Z" fill="#FCFCFC" stroke="#FCFCFC"/>
</svg>
