<svg width="17" height="16" viewBox="0 0 17 16" fill="none" xmlns="http://www.w3.org/2000/svg">
<g clip-path="url(#clip0_310_118)">
<path fill-rule="evenodd" clip-rule="evenodd" d="M11.3619 0.862009C11.6223 0.601661 12.0444 0.601661 12.3047 0.862009L14.3047 2.86201C14.5651 3.12236 14.5651 3.54447 14.3047 3.80482L12.3047 5.80482C12.0444 6.06517 11.6223 6.06517 11.3619 5.80482C11.1016 5.54447 11.1016 5.12236 11.3619 4.86201L12.2239 4.00008H6.16668C3.9682 4.00008 2.16668 5.8016 2.16668 8.00008C2.16668 8.36828 1.8682 8.66675 1.50001 8.66675C1.13182 8.66675 0.833344 8.36828 0.833344 8.00008C0.833344 5.06523 3.23182 2.66675 6.16668 2.66675H12.2239L11.3619 1.80482C11.1016 1.54447 11.1016 1.12236 11.3619 0.862009ZM16.1667 8.00008C16.1667 7.63188 15.8682 7.33342 15.5 7.33342C15.1318 7.33342 14.8333 7.63188 14.8333 8.00008C14.8333 10.1985 13.0318 12.0001 10.8333 12.0001H4.77615L5.63808 11.1381C5.89843 10.8778 5.89843 10.4557 5.63808 10.1953C5.37773 9.93502 4.95562 9.93502 4.69527 10.1953L2.69527 12.1953C2.43492 12.4557 2.43492 12.8778 2.69527 13.1381L4.69527 15.1381C4.95562 15.3985 5.37773 15.3985 5.63808 15.1381C5.89843 14.8778 5.89843 14.4557 5.63808 14.1953L4.77615 13.3334H10.8333C13.7682 13.3334 16.1667 10.9349 16.1667 8.00008Z" fill="#9898A6"/>
</g>
<defs>
<clipPath id="clip0_310_118">
<rect width="16" height="16" fill="white" transform="translate(0.5)"/>
</clipPath>
</defs>
</svg>
