<svg width="17" height="16" viewBox="0 0 17 16" fill="none" xmlns="http://www.w3.org/2000/svg">
<path d="M11.4607 7.88191L11.5514 7.98333L11.4607 8.08475C11.4511 8.0955 11.4387 8.10661 11.4228 8.11722L11.4227 8.11718L11.4169 8.12118L2.5836 14.1878L2.57249 14.1955L2.56181 14.2037C2.53221 14.2265 2.50874 14.2322 2.49134 14.2333C2.47152 14.2345 2.44728 14.2301 2.42185 14.2167C2.36986 14.1891 2.33333 14.1359 2.33333 14.0667V1.93333C2.33333 1.86413 2.36986 1.81093 2.42185 1.78334C2.44728 1.76985 2.47152 1.76551 2.49134 1.76674C2.50874 1.76783 2.53221 1.77354 2.56181 1.79631L2.573 1.80492L2.58465 1.81288L11.418 7.84622L11.418 7.84624L11.4228 7.84944C11.4387 7.86006 11.4511 7.87117 11.4607 7.88191ZM12.3333 7.54853V7.10936V1.66667C12.3333 1.57614 12.4095 1.5 12.5 1.5H14.5C14.5905 1.5 14.6667 1.57614 14.6667 1.66667V14.3333C14.6667 14.4239 14.5905 14.5 14.5 14.5H12.5C12.4095 14.5 12.3333 14.4239 12.3333 14.3333V8.8573V8.41813V7.54853Z" fill="#FCFCFC" stroke="#FCFCFC"/>
</svg>
