<svg width="17" height="16" viewBox="0 0 17 16" fill="none" xmlns="http://www.w3.org/2000/svg">
<path d="M13.5536 5.02014L14.4071 4.16659H13.2H11.3C10.4672 4.16659 9.63449 4.61716 9.20593 5.34037L5.77887 10.8303C5.23126 11.6632 4.35153 12.1666 3.36667 12.1666H2.16667C2.07614 12.1666 2 12.0904 2 11.9999C2 11.9094 2.07614 11.8333 2.16667 11.8333H3.36667C4.22939 11.8333 5.02891 11.4189 5.49202 10.6627L8.92113 5.16952C9.46874 4.33664 10.3485 3.83325 11.3333 3.83325H13.2333H14.4404L13.5869 2.9797L12.7202 2.11303C12.6777 2.07047 12.6667 2.0298 12.6667 1.99992C12.6667 1.97003 12.6777 1.92936 12.7202 1.88681C12.7628 1.84425 12.8034 1.83325 12.8333 1.83325C12.8632 1.83325 12.9039 1.84425 12.9464 1.88681L14.9464 3.88681L14.9667 3.90703V3.94061L15 3.97389V4.00703L15.0168 4.02381C15.012 4.03421 15.0073 4.04514 15.0029 4.0566L14.9464 4.11303L12.9464 6.11303C12.9039 6.15559 12.8632 6.16659 12.8333 6.16659C12.8109 6.16659 12.7589 6.16004 12.6711 6.09566C12.6415 6.05953 12.6333 6.02571 12.6333 5.99992C12.6333 5.97003 12.6443 5.92936 12.6869 5.88681L13.5536 5.02014ZM5.37077 5.15708C4.89665 4.51543 4.15826 4.16659 3.36667 4.16659H2.16667C2.09198 4.16659 2 4.10656 2 3.96659C2 3.87607 2.07614 3.79993 2.16667 3.79993H3.36667C4.22424 3.79993 5.01614 4.18107 5.56273 4.85315L5.37077 5.15708ZM14.9333 11.9404V12.1261L12.9464 14.113C12.9039 14.1556 12.8632 14.1666 12.8333 14.1666C12.8109 14.1666 12.7589 14.16 12.6711 14.0957C12.6415 14.0595 12.6333 14.0257 12.6333 13.9999C12.6333 13.97 12.6443 13.9294 12.6869 13.8868L13.5536 13.0201L14.4071 12.1666H13.2H11.3C10.4446 12.1666 9.65461 11.7874 9.10817 11.1186L9.3199 10.7967C9.79364 11.4465 10.5365 11.7999 11.3333 11.7999H13.2333H14.4404L13.5869 10.9464L12.7202 10.0797C12.6777 10.0371 12.6667 9.99647 12.6667 9.96659C12.6667 9.9367 12.6777 9.89603 12.7202 9.85347C12.7628 9.81091 12.8034 9.79992 12.8333 9.79992C12.8632 9.79992 12.9039 9.81091 12.9464 9.85347L14.9333 11.8404V11.9404Z" fill="#FCFCFC" stroke="#FCFCFC"/>
</svg>
