<svg width="24" height="24" viewBox="0 0 24 24" fill="none" xmlns="http://www.w3.org/2000/svg">
<path d="M3.4503 20.5H1.5V18.5497C2.48159 18.7478 3.25216 19.5184 3.4503 20.5Z" fill="#FCFCFC" stroke="#FCFCFC"/>
<path d="M1.5 15.5225V14.5189C4.69459 14.7611 7.2389 17.3054 7.48112 20.5H6.47755C6.23956 17.8626 4.1374 15.7604 1.5 15.5225Z" fill="#FCFCFC" stroke="#FCFCFC"/>
<path d="M1.5 11.5129V10.5117C6.89703 10.7649 11.235 15.095 11.4883 20.5H10.4871C10.2356 15.6518 6.3482 11.7644 1.5 11.5129Z" fill="#FCFCFC" stroke="#FCFCFC"/>
<path d="M3 4.5H2.5V5V7.5H1.5V5C1.5 4.17614 2.17614 3.5 3 3.5H21C21.8239 3.5 22.5 4.17614 22.5 5V19C22.5 19.8239 21.8239 20.5 21 20.5H14.5V19.5H21H21.5V19V5V4.5H21H3Z" fill="#FCFCFC" stroke="#FCFCFC"/>
</svg>
